PathFileType	4	(X/Y/Z)	/Users/itak/Documents/Research/Walk-IL/dataset/trc/00270_00010.trc
DataRate	CameraRate	NumFrames	NumMarkers	Units	OrigDataRate	OrigDataStartFrame	OrigNumFrames
100.000000	100.000000	4	55	mm	100.000000	399	456
Frame#	Time	RPSI			LPSI			L3			STRN			T10			C7			CLAV			RBAK			LBAK			LSHO			LUPA			LAEL			LAOL			LWTS			LWPS			LFRA			LIFD			LHPS			LHTS			RSHO			RUPA			RAEL			RAOL			RWTS			RWPS			RFRA			RIFD			RHTS			RHPS			RBHD			LFHD			RFHD			LBHD			LHIP			RASI			LKNE			LANK			LTIP			LTOE			LMT1			LMT5			LHEE			RKNE			RTHI			RANK			RTIP			RTOE			RMT1			RMT5			RHEE			RHIP			LTHI			LASI			*53			*54			
		X1	Y1	Z1	X2	Y2	Z2	X3	Y3	Z3	X4	Y4	Z4	X5	Y5	Z5	X6	Y6	Z6	X7	Y7	Z7	X8	Y8	Z8	X9	Y9	Z9	X10	Y10	Z10	X11	Y11	Z11	X12	Y12	Z12	X13	Y13	Z13	X14	Y14	Z14	X15	Y15	Z15	X16	Y16	Z16	X17	Y17	Z17	X18	Y18	Z18	X19	Y19	Z19	X20	Y20	Z20	X21	Y21	Z21	X22	Y22	Z22	X23	Y23	Z23	X24	Y24	Z24	X25	Y25	Z25	X26	Y26	Z26	X27	Y27	Z27	X28	Y28	Z28	X29	Y29	Z29	X30	Y30	Z30	X31	Y31	Z31	X32	Y32	Z32	X33	Y33	Z33	X34	Y34	Z34	X35	Y35	Z35	X36	Y36	Z36	X37	Y37	Z37	X38	Y38	Z38	X39	Y39	Z39	X40	Y40	Z40	X41	Y41	Z41	X42	Y42	Z42	X43	Y43	Z43	X44	Y44	Z44	X45	Y45	Z45	X46	Y46	Z46	X47	Y47	Z47	X48	Y48	Z48	X49	Y49	Z49	X50	Y50	Z50	X51	Y51	Z51	X52	Y52	Z52	X53	Y53	Z53	X54	Y54	Z54	X55	Y55	Z55	

400	3.99	-1309.034790039062	1002.555908203125	28.1772575378418	-1281.232666015625	990.1710815429688	-143.57177734375	-1277.56005859375	1076.149780273438	-59.56974029541016	-1020.779296875	1246.439697265625	-39.35182952880859	-1291.430541992188	1196.150512695312	-64.04692077636719	-1227.857666015625	1437.61767578125	-82.48402404785156	-1079.220458984375	1348.110595703125	-53.69726181030273	-1294.297973632812	1305.16455078125	-10.1278715133667	-1236.047607421875	1398.163818359375	-186.4990997314453	-1139.940551757812	1397.01708984375	-228.0469055175781	-1176.5322265625	1283.825439453125	-301.4396057128906	-1210.932373046875	1087.322509765625	-317.7956237792969	-1276.142578125	1082.350463867188	-261.2508850097656	-1163.669189453125	858.4130249023438	-281.3326721191406	-1201.701049804688	852.7546997070312	-343.4330139160156	-1214.72705078125	982.8878173828125	-331.80078125	-1191.70361328125	669.4310913085938	-284.6645812988281	-1209.060180664062	764.041748046875	-343.235595703125	-1153.393920898438	758.6343383789062	-306.9594116210938	-1182.449829101562	1418.205688476562	83.56638336181641	-1201.827026367188	1364.18115234375	150.8775177001953	-1257.584716796875	1110.345092773438	215.2247161865234	-1274.344604492188	1095.826538085938	121.4045639038086	-1193.2490234375	869.26025390625	212.8137359619141	-1253.14111328125	882.780517578125	272.05322265625	-1249.559326171875	1043.63134765625	239.6359710693359	-1225.312255859375	686.1660766601562	236.7593841552734	-1194.208251953125	753.9512329101562	248.6861267089844	-1253.9921875	769.9435424804688	284.5388793945312	-1198.285766601562	1595.003662109375	-4.952239513397217	-1028.875854492188	1628.259155273438	-129.2270812988281	-1028.573974609375	1631.08935546875	-36.28908538818359	-1197.847778320312	1580.410278320312	-150.8940582275391	-1194.282592773438	946.3775634765625	-224.8535919189453	-1094.2490234375	967.0802001953125	95.21492004394531	-1032.596313476562	501.1482543945312	-214.9796905517578	-1236.765991210938	90.08329772949219	-219.5294952392578	-1136.771606445312	292.0873718261719	-230.7848663330078	-1041.508422851562	54.01079940795898	-146.7727661132812	-1113.442993164062	50.28946304321289	-111.5485076904297	-1116.739379882812	65.74212646484375	-221.6983642578125	-1287.8623046875	94.69219970703125	-164.6634674072266	-1169.10400390625	483.791015625	94.75634765625	-1151.351440429688	746.12353515625	145.0060577392578	-1247.255249023438	45.91199493408203	34.91763305664062	-1161.506958007812	359.5757446289062	70.40132904052734	-1051.486572265625	60.1504020690918	-12.74837303161621	-1106.076171875	49.42190170288086	-53.98932647705078	-1141.435180664062	45.74180603027344	60.94076156616211	-1298.269409179688	40.42699432373047	-17.77614974975586	-1222.044555664062	958.1373901367188	148.8892211914062	-1069.021118164062	640.7890014648438	-226.7994232177734	-1066.263793945312	963.4610595703125	-155.6072235107422	nan	nan	nan	nan	nan	nan	
401	4	-1309.440551757812	1002.974304199219	27.83473205566406	-1281.88916015625	990.8438110351562	-143.9756469726562	-1278.041381835938	1076.216430664062	-59.98170852661133	-1022.171691894531	1247.122192382812	-39.34860229492188	-1292.689453125	1195.979614257812	-64.59925079345703	-1229.719360351562	1437.580444335938	-82.97878265380859	-1080.958984375	1348.586181640625	-53.7994270324707	-1295.856567382812	1304.870239257812	-10.90112018585205	-1237.579833984375	1398.080322265625	-186.9813995361328	-1141.400634765625	1397.188110351562	-228.3204803466797	-1177.581420898438	1283.908325195312	-301.7162780761719	-1211.489990234375	1087.403686523438	-318.12646484375	-1276.697143554688	1082.19580078125	-261.6032409667969	-1163.861450195312	858.5142822265625	-281.9399719238281	-1201.866943359375	852.7970581054688	-344.0408935546875	-1215.120971679688	982.9428100585938	-332.2718200683594	-1190.950927734375	669.7640380859375	-285.5773010253906	-1209.056274414062	764.044921875	-343.8465270996094	-1153.402099609375	758.6444702148438	-307.6373596191406	-1184.830200195312	1418.36767578125	83.19532775878906	-1204.423217773438	1364.373779296875	150.4409332275391	-1260.809204101562	1110.47802734375	213.8468475341797	-1276.602905273438	1096.07666015625	119.8269348144531	-1196.851318359375	869.239990234375	211.8868103027344	-1257.418090820312	882.8546752929688	270.4580383300781	-1253.112915039062	1043.739868164062	238.2854156494141	-1229.947998046875	686.1980590820312	235.1338348388672	-1198.746826171875	753.8611450195312	247.5993347167969	-1258.866577148438	770.0218505859375	282.7945251464844	-1200.687744140625	1595.23974609375	-5.484084129333496	-1031.072021484375	1628.620849609375	-129.4106597900391	-1030.949584960938	1631.52587890625	-36.47490310668945	-1199.917846679688	1580.538818359375	-151.39697265625	-1195.284545898438	946.8414306640625	-225.4672393798828	-1094.683349609375	967.023681640625	94.51115417480469	-1039.130981445312	499.8194885253906	-216.0171356201172	-1240.944946289062	87.51984405517578	-220.0469818115234	-1142.508056640625	290.2202758789062	-231.5630950927734	-1045.319702148438	52.64067459106445	-147.8383331298828	-1116.952758789062	48.49238967895508	-112.4421081542969	-1120.773193359375	64.04041290283203	-222.5960235595703	-1291.916870117188	91.75511932373047	-165.0404357910156	-1169.81298828125	483.9627685546875	94.49533843994141	-1152.000610351562	746.2353515625	144.4205932617188	-1247.2470703125	45.8854866027832	34.96347045898438	-1162.150756835938	359.7808532714844	70.26995849609375	-1051.376953125	59.94234848022461	-12.73785305023193	-1106.091186523438	49.41489791870117	-53.90020370483398	-1141.421142578125	45.58601379394531	60.92775344848633	-1298.226928710938	40.44664764404297	-17.69346046447754	-1222.183227539062	958.2633666992188	148.4466705322266	-1073.889770507812	639.9129638671875	-227.6246795654297	-1067.044311523438	963.571044921875	-156.3874053955078	nan	nan	nan	nan	nan	nan	
402	4.01	-1309.781494140625	1003.391662597656	27.47151756286621	-1282.526123046875	991.4852905273438	-144.4099731445312	-1278.482788085938	1076.270751953125	-60.42428207397461	-1023.484191894531	1247.738159179688	-39.42101287841797	-1293.875244140625	1195.788330078125	-65.16032409667969	-1231.488037109375	1437.525146484375	-83.48051452636719	-1082.574951171875	1349.0224609375	-53.96553421020508	-1297.295043945312	1304.566040039062	-11.65746974945068	-1239.055053710938	1397.9775390625	-187.4725646972656	-1142.814086914062	1397.340576171875	-228.6255493164062	-1178.5634765625	1283.961791992188	-302.031005859375	-1211.9130859375	1087.445190429688	-318.5026550292969	-1277.118286132812	1081.969848632812	-262.0103454589844	-1163.806762695312	858.595458984375	-282.6465759277344	-1201.803955078125	852.8216552734375	-344.7334899902344	-1215.311645507812	982.9570922851562	-332.8014221191406	-1189.575561523438	670.25390625	-286.8611755371094	-1208.78369140625	764.0390014648438	-344.5927734375	-1153.113525390625	758.65283203125	-308.4739990234375	-1187.0400390625	1418.493286132812	82.78932189941406	-1206.806640625	1364.5283203125	149.9846038818359	-1263.803100585938	1110.593505859375	212.5085906982422	-1278.797973632812	1096.353149414062	118.3279037475586	-1200.154541015625	869.22412109375	210.7962036132812	-1261.27587890625	882.8785400390625	268.8117980957031	-1256.380737304688	1043.804931640625	236.9386596679688	-1234.09423828125	686.19775390625	233.2499389648438	-1202.834350585938	753.7886962890625	246.2940826416016	-1263.223999023438	770.0335693359375	280.9291687011719	-1203.037231445312	1595.43212890625	-6.041132926940918	-1033.230102539062	1628.99853515625	-129.6224822998047	-1033.294799804688	1631.989990234375	-36.69473648071289	-1201.913208007812	1580.613403320312	-151.9381866455078	-1196.285766601562	947.27099609375	-226.1304016113281	-1095.037963867188	966.941162109375	93.73743438720703	-1045.61962890625	498.5624084472656	-217.0228271484375	-1244.659912109375	84.85305023193359	-220.5890502929688	-1147.998046875	288.3482971191406	-232.3220520019531	-1048.670043945312	51.39338684082031	-148.7241821289062	-1120.044189453125	46.77779006958008	-113.2067642211914	-1124.3125	62.35405731201172	-223.3982543945312	-1295.529907226562	88.6734619140625	-165.4894104003906	-1170.523681640625	484.1400451660156	94.20763397216797	-1152.680908203125	746.3400268554688	143.7904205322266	-1247.238525390625	45.86286163330078	35.00611114501953	-1162.811157226562	359.9719543457031	70.12725830078125	-1051.27001953125	59.73125457763672	-12.72674369812012	-1106.134887695312	49.39499664306641	-53.78486633300781	-1141.400512695312	45.42354583740234	60.91592407226562	-1298.18310546875	40.46833419799805	-17.61733818054199	-1222.264770507812	958.417724609375	147.9479217529297	-1078.911376953125	638.983154296875	-228.3827972412109	-1067.820556640625	963.6570434570312	-157.2320251464844	nan	nan	nan	nan	nan	nan	
403	4.02	-1310.060668945312	1003.802856445312	27.08685874938965	-1283.1474609375	992.09228515625	-144.8790588378906	-1278.898071289062	1076.3115234375	-60.90801620483398	-1024.718627929688	1248.285522460938	-39.57332992553711	-1294.979125976562	1195.572387695312	-65.73216247558594	-1233.16748046875	1437.453247070312	-83.99085235595703	-1084.06689453125	1349.41748046875	-54.19575500488281	-1298.617431640625	1304.250732421875	-12.39853668212891	-1240.474975585938	1397.858764648438	-187.9759368896484	-1144.184326171875	1397.47412109375	-228.9639282226562	-1179.479858398438	1283.984619140625	-302.3880920410156	-1212.2041015625	1087.444580078125	-318.930908203125	-1277.402099609375	1081.671875	-262.4783020019531	-1163.5087890625	858.6535034179688	-283.4501037597656	-1201.522094726562	852.8283081054688	-345.5112609863281	-1215.300537109375	982.9307861328125	-333.3909912109375	-1187.765258789062	670.7947998046875	-288.4170837402344	-1208.25341796875	764.0230712890625	-345.4694519042969	-1152.522583007812	758.6694946289062	-309.4472961425781	-1189.083374023438	1418.579833984375	82.34926605224609	-1208.983764648438	1364.641845703125	149.5084075927734	-1266.562744140625	1110.683837890625	211.2150573730469	-1280.928100585938	1096.639404296875	116.9068069458008	-1203.158081054688	869.2052001953125	209.5454711914062	-1264.710693359375	882.84765625	267.1264038085938	-1259.361328125	1043.822265625	235.5964050292969	-1237.752075195312	686.1514892578125	231.1202545166016	-1206.449951171875	753.7224731445312	244.7771911621094	-1267.052978515625	769.97412109375	278.9648742675781	-1205.333984375	1595.57470703125	-6.620965480804443	-1035.346923828125	1629.394287109375	-129.8635711669922	-1035.609008789062	1632.476196289062	-36.94584655761719	-1203.83203125	1580.636596679688	-152.5202331542969	-1197.274291992188	947.662109375	-226.8426055908203	-1095.311279296875	966.8292236328125	92.89769744873047	-1052.0517578125	497.3807983398438	-217.9883880615234	-1247.8779296875	82.09636688232422	-221.1771545410156	-1153.2216796875	286.48388671875	-233.0711059570312	-1051.557495117188	50.30471038818359	-149.3828735351562	-1122.729248046875	45.18647766113281	-113.8231506347656	-1127.316162109375	60.70412063598633	-224.0876922607422	-1298.694458007812	85.46526336669922	-166.0501556396484	-1171.22607421875	484.3114318847656	93.89018249511719	-1153.339477539062	746.4447631835938	143.1300506591797	-1247.229736328125	45.84402847290039	35.04565048217773	-1163.466186523438	360.1527099609375	69.9639892578125	-1051.165771484375	59.52157974243164	-12.71623039245605	-1106.213500976562	49.36155319213867	-53.64572525024414	-1141.369995117188	45.2626953125	60.90386199951172	-1298.137451171875	40.49040603637695	-17.54675674438477	-1222.294067382812	958.6050415039062	147.3907318115234	-1083.971557617188	638.0484008789062	-229.1136779785156	-1068.602661132812	963.7113647460938	-158.1423950195312	nan	nan	nan	nan	nan	nan	
